<?xml version="1.0" standalone="no"?>
<!DOCTYPE svg PUBLIC "-//W3C//DTD SVG 20010904//EN"
 "http://www.w3.org/TR/2001/REC-SVG-20010904/DTD/svg10.dtd">
<svg version="1.0" xmlns="http://www.w3.org/2000/svg"
 width="2388.000000pt" height="538.000000pt" viewBox="0 0 2388.000000 538.000000"
 preserveAspectRatio="xMidYMid meet">

<g transform="translate(0.000000,538.000000) scale(0.100000,-0.100000)"
fill="#000000" stroke="none">
<path d="M0 2690 l0 -2690 11940 0 11940 0 0 2690 0 2690 -11940 0 -11940 0 0
-2690z m2220 2131 c335 -45 602 -193 781 -430 201 -269 328 -797 329 -1368 0
-163 6 -177 78 -181 l52 -3 0 -520 0 -519 -635 0 -635 0 0 -65 0 -65 635 0
635 0 0 -145 0 -145 -437 -2 -438 -3 -3 -387 -2 -388 -487 -2 -487 -3 -6 -24
c-4 -16 -16 -28 -35 -34 -17 -5 -224 -10 -462 -11 -382 -1 -434 1 -448 15 -14
14 -17 83 -22 567 l-6 552 305 0 c168 0 387 3 486 7 l182 6 0 64 0 63 -440 0
-440 0 -1 338 c0 185 -4 397 -8 470 -6 124 -8 135 -30 151 -14 11 -26 34 -32
62 -7 38 -28 1343 -29 1847 l0 174 758 -5 c490 -3 787 -9 842 -16z m4130 -501
c107 -5 213 -15 236 -21 23 -6 67 -31 99 -56 67 -53 98 -111 116 -223 16 -97
24 -2061 11 -2424 -10 -249 -10 -253 -40 -318 -57 -126 -160 -204 -302 -229
-41 -7 -295 -13 -697 -16 l-633 -5 0 1649 c0 907 2 1652 5 1655 9 8 980 -2
1205 -12z m8610 -1637 l0 -1656 -337 7 c-185 3 -339 9 -342 11 -2 3 -33 114
-68 247 -146 558 -254 959 -265 985 -11 25 -13 15 -19 -87 -3 -63 -7 -351 -8
-639 l-1 -524 -297 7 c-163 3 -299 9 -302 11 -2 3 -5 736 -5 1630 -1 1319 1
1626 12 1637 10 10 84 14 315 16 l302 3 150 -590 c82 -324 152 -588 153 -586
2 2 10 263 17 580 8 318 16 580 19 583 4 3 133 8 289 12 155 4 306 7 335 8
l52 2 0 -1657z m5286 1641 l111 -6 37 -141 c20 -78 94 -361 164 -629 l127
-488 3 635 2 635 335 0 335 0 0 -1650 0 -1650 -334 0 -334 0 -10 38 c-5 20
-42 156 -81 302 -39 146 -109 414 -155 595 -47 182 -85 319 -86 305 0 -14 -7
-294 -14 -623 -8 -329 -16 -600 -18 -602 -2 -3 -138 -8 -301 -11 l-297 -7 0
1656 0 1656 203 -5 c111 -2 252 -7 313 -10z m-11859 -59 c10 -48 63 -359 88
-511 4 -24 1 -34 -12 -40 -10 -5 -166 -11 -348 -14 l-330 -5 0 -385 0 -385
268 -3 267 -2 0 -280 0 -280 -270 0 -270 0 2 -357 3 -358 315 -5 c173 -3 323
-10 334 -14 23 -11 21 -34 -42 -353 l-47 -243 -627 0 -628 0 0 1650 0 1650
643 -2 642 -3 12 -60z m2733 -1587 l0 -1651 -322 7 c-178 3 -326 10 -330 14
-13 13 -11 3241 2 3257 17 20 38 22 358 24 l292 1 0 -1652z m1422 1645 c178
-6 187 -7 192 -27 3 -12 21 -106 41 -211 39 -202 55 -368 38 -378 -6 -4 -123
-9 -259 -12 -137 -3 -304 -8 -371 -11 l-123 -6 0 -1009 c0 -799 3 -1010 13
-1013 6 -3 90 -7 185 -10 l172 -6 0 640 0 640 318 0 317 0 -2 -557 c-1 -307
-5 -730 -9 -941 l-6 -382 -532 0 c-292 1 -599 5 -682 9 -185 11 -228 26 -307
110 -64 67 -91 116 -106 192 -20 97 -32 883 -28 1749 4 885 6 929 49 1030 19
44 71 109 106 132 46 31 130 50 251 58 157 10 515 11 743 3z m4617 -13 c97
-12 197 -56 236 -102 33 -38 52 -109 66 -238 7 -69 13 -530 16 -1355 l4 -1250
-55 -100 c-68 -122 -113 -166 -196 -189 -88 -25 -360 -35 -931 -36 l-497 0 -7
733 c-8 861 -3 2522 7 2533 4 4 25 11 45 15 56 12 1212 2 1312 -11z m1849 10
c145 -7 180 -12 218 -31 56 -27 171 -140 191 -188 28 -66 32 -279 33 -1523 l0
-1248 -41 -67 c-87 -141 -125 -172 -250 -200 -64 -15 -142 -17 -574 -18 -560
0 -544 -2 -663 72 -116 72 -142 130 -162 363 -15 185 -17 2344 -2 2479 14 121
34 172 93 236 101 110 217 131 729 133 140 1 333 -3 428 -8z m3804 3 l186 -6
27 -141 c44 -229 65 -368 65 -423 l0 -53 -397 -2 -398 -3 0 -357 c0 -196 2
-359 5 -362 3 -3 134 -12 290 -21 313 -17 383 -26 419 -53 84 -62 90 -101 102
-734 15 -735 6 -844 -80 -980 -81 -127 -197 -147 -857 -148 l-371 0 -58 286
c-56 277 -58 287 -40 300 15 11 75 14 279 14 276 1 394 10 432 35 13 8 32 30
41 48 16 28 18 60 17 278 -2 259 -12 345 -44 374 -30 27 -98 36 -355 44 -269
8 -309 17 -358 82 -71 95 -81 208 -82 889 0 503 2 561 18 620 33 121 117 229
216 277 53 26 65 28 246 34 295 9 494 10 697 2z m-12703 -224 c24 -122 46
-259 49 -304 l5 -82 -60 -7 c-32 -4 -209 -11 -392 -16 -183 -5 -335 -11 -337
-13 -8 -7 -9 -643 -1 -669 4 -15 17 -32 28 -38 12 -7 133 -15 307 -20 175 -5
299 -12 317 -19 17 -7 58 -40 93 -74 l62 -61 0 -651 c0 -796 -8 -887 -82 -971
-39 -45 -146 -99 -224 -114 -60 -11 -377 -25 -771 -34 l-222 -5 -20 87 c-19
84 -72 368 -85 463 -6 39 -4 48 11 54 10 5 162 12 338 16 176 4 334 12 350 17
17 5 36 20 43 35 22 44 34 290 23 475 -10 175 -18 215 -47 226 -32 12 -250 26
-424 26 l-175 0 -88 88 -88 89 4 679 c3 602 6 687 21 753 31 132 87 212 175
248 87 37 156 41 656 42 l491 1 43 -221z m-9489 -2319 c27 -27 26 -75 -2 -94
-18 -13 -54 -16 -181 -16 -90 0 -167 4 -178 10 -14 8 -19 21 -19 56 0 37 4 46
23 54 12 5 93 9 180 9 144 1 159 -1 177 -19z m3700 -45 l0 -65 -425 0 -425 0
0 65 0 65 425 0 425 0 0 -65z m-1554 -449 c13 -28 24 -63 24 -78 l0 -28 -75 0
c-71 0 -75 1 -75 23 0 26 35 104 56 129 23 25 43 11 70 -46z m161 3 c13 -32
24 -48 27 -39 2 8 10 32 16 53 18 60 33 46 28 -26 -11 -138 -75 -146 -113 -14
-29 100 4 121 42 26z m213 -34 c0 -52 -4 -76 -15 -85 -22 -18 -38 32 -32 102
6 69 13 84 33 67 10 -8 14 -34 14 -84z m229 72 c57 -28 46 -127 -15 -153 -43
-18 -98 -18 -113 0 -17 20 -25 107 -12 139 10 25 15 27 63 27 29 0 64 -6 77
-13z"/>
<path d="M1460 3495 l0 -625 70 0 70 0 0 -536 0 -536 274 4 c253 3 276 4 295
22 12 11 21 29 21 41 0 42 30 55 159 69 67 7 125 16 128 20 4 4 -5 18 -20 32
-15 14 -27 27 -27 30 0 14 31 62 55 84 39 36 48 16 49 -110 1 -33 5 -45 16
-45 24 0 28 69 29 460 1 386 -4 435 -42 435 -50 1 -51 6 -59 227 -8 258 -15
340 -39 473 -46 260 -130 415 -258 480 -138 69 -307 100 -553 100 l-168 0 0
-625z m306 -1496 c4 -6 8 -30 9 -53 1 -22 5 -58 10 -78 9 -44 -5 -50 -41 -17
-18 17 -26 19 -42 10 -37 -20 -42 -13 -42 53 0 45 5 69 16 80 18 18 79 21 90
5z"/>
<path d="M1600 1520 l0 -150 293 0 292 0 -3 150 -3 150 -290 0 -289 0 0 -150z"/>
<path d="M5780 2682 l0 -1072 189 0 190 0 -5 983 c-3 540 -7 1019 -10 1065
l-6 82 -72 0 c-40 0 -121 3 -179 7 l-107 6 0 -1071z"/>
<path d="M16450 2682 l0 -1072 108 5 c59 3 140 8 180 11 l72 6 0 1054 0 1054
-73 0 c-41 0 -122 3 -180 7 l-107 6 0 -1071z"/>
<path d="M18430 2680 l0 -1070 170 0 170 0 0 1070 0 1070 -170 0 -170 0 0
-1070z"/>
<path d="M3291 1296 c-7 -8 -11 -27 -9 -43 2 -23 8 -29 35 -31 39 -4 53 26 29
63 -19 28 -38 32 -55 11z"/>
</g>
</svg>
